<svg xmlns="http://www.w3.org/2000/svg" viewBox="0 0 2175.2 2175.2"><defs><style>.cls-1{fill:#323232;}</style></defs><g id="Layer_2" data-name="Layer 2"><g id="Layer_1-2" data-name="Layer 1"><path class="cls-1" d="M1087.6,2175.2c-146.81,0-289.25-28.76-423.35-85.48A1090.64,1090.64,0,0,1,85.48,1511C28.76,1376.85,0,1234.42,0,1087.6S28.76,798.35,85.48,664.25A1090.73,1090.73,0,0,1,664.25,85.48C798.35,28.76,940.79,0,1087.6,0S1376.85,28.76,1511,85.48a1090.73,1090.73,0,0,1,578.77,578.77c56.72,134.1,85.48,276.54,85.48,423.35s-28.76,289.25-85.48,423.35A1090.73,1090.73,0,0,1,1511,2089.72C1376.85,2146.44,1234.41,2175.2,1087.6,2175.2Zm0-2125.2c-140.09,0-276,27.43-403.87,81.53a1041.4,1041.4,0,0,0-552.2,552.2C77.43,811.63,50,947.51,50,1087.6s27.43,276,81.53,403.87a1041.4,1041.4,0,0,0,552.2,552.2c127.9,54.1,263.78,81.53,403.87,81.53s276-27.43,403.87-81.53a1041.4,1041.4,0,0,0,552.2-552.2c54.1-127.9,81.53-263.78,81.53-403.87s-27.43-276-81.53-403.87a1041.4,1041.4,0,0,0-552.2-552.2C1363.57,77.43,1227.69,50,1087.6,50Z"/><path class="cls-1" d="M324.39,1249.08l445,225.59a2.3,2.3,0,0,0,3.2-1.25l441.49-1163.9a2.24,2.24,0,0,1,4.27,1.33L852.13,1859.17a4.56,4.56,0,0,1-7.89,1.92L321.89,1252.63A2.24,2.24,0,0,1,324.39,1249.08Z"/><path class="cls-1" d="M1850.69,1226.38l-432.26,249.09a2.32,2.32,0,0,1-3.27-1.07L912,335.8a2.24,2.24,0,0,0-4.19,1.55l448.58,1526.5a4.56,4.56,0,0,0,8,1.49l489-635.54A2.25,2.25,0,0,0,1850.69,1226.38Z"/></g></g></svg>