<svg height='100px' width='100px'  fill="#5a5a5a" xmlns="http://www.w3.org/2000/svg" xmlns:xlink="http://www.w3.org/1999/xlink" version="1.1" x="0px" y="0px" viewBox="0 0 100 100" style="enable-background:new 0 0 100 100;" xml:space="preserve"><path d="M88.5,27.2H79c-0.8,0-1.5,0.7-1.5,1.5v42.5c0,0.8,0.7,1.5,1.5,1.5h9.5c0.8,0,1.5-0.7,1.5-1.5V28.7  C90,27.9,89.3,27.2,88.5,27.2z"></path><path d="M73.7,36.3h-9.5c-0.8,0-1.5,0.7-1.5,1.5v33.4c0,0.8,0.7,1.5,1.5,1.5h9.5c0.8,0,1.5-0.7,1.5-1.5V37.9  C75.2,37,74.5,36.3,73.7,36.3z"></path><path d="M58.8,47.7h-9.5c-0.8,0-1.5,0.7-1.5,1.5v22c0,0.8,0.7,1.5,1.5,1.5h9.5c0.8,0,1.5-0.7,1.5-1.5v-22  C60.4,48.4,59.7,47.7,58.8,47.7z"></path><path d="M44,56.8h-9.5c-0.8,0-1.5,0.7-1.5,1.5v12.9c0,0.8,0.7,1.5,1.5,1.5H44c0.8,0,1.5-0.7,1.5-1.5V58.4  C45.6,57.5,44.9,56.8,44,56.8z"></path><path d="M36.8,29.5c0.3-0.3,0.4-0.8,0.2-1.2c-0.2-0.4-0.6-0.7-1-0.7H11.1c-0.4,0-0.9,0.3-1,0.7c-0.2,0.4-0.1,0.9,0.2,1.2L22,41.7  v30.8h3.4v-31L36.8,29.5z"></path></svg>